# xmcd CD database file
# Copyright (C) 1996 Ti Kan
#
# Track frame offsets:
#  150
#  18937
#  32842
#  48077
#  89737
#  105145
#  140585
#  155900
#  167590
#  191175
#  205607
#
# Disc length: 2922 seconds
#
# Revision: 1
# Processed by: cddbd v1.4b41PL1 Copyright (c) Steve Scherf et al.
# Submitted via: CDWizzard Release:4.13
#
DISCID=8d0b680b
DTITLE=Various Artist - Super JAZZ.1
DYEAR=1900
DGENRE=
TTITLE0=I Love You Porgy
TTITLE1=September Song
TTITLE2=ST.James Infirmary Blues
TTITLE3=The Masquerade is Over
TTITLE4=Take Five
TTITLE5=Hanky's Panky
TTITLE6=MoonLight Serenade
TTITLE7=Balboa Blue
TTITLE8=Groovin High
TTITLE9=Look Ma I'm Cryin'
TTITLE10=Humoresque
EXTD=My Favorite Disc, In Korea, there are 2 cds in this album. this firs
EXTD=t one of album.
EXTT0=
EXTT1=
EXTT2=
EXTT3=
EXTT4=Nina Simon
EXTT5=Sarah Vaughn
EXTT6=Louis Armstrong
EXTT7=George Benson
EXTT8=Quincy Jones
EXTT9=Shirley Scott
EXTT10=Glen Miller
PLAYORDER=
